<svg xmlns="http://www.w3.org/2000/svg" width="1800" height="1300" viewBox="0 0 1800 1300">
<rect width="100%" height="100%" fill="#ffffff"/>
<line x1="0" y1="0" x2="0" y2="1300" stroke="#f2f2f2" stroke-width="1" stroke-linecap="round"/>
<line x1="50" y1="0" x2="50" y2="1300" stroke="#f2f2f2" stroke-width="1" stroke-linecap="round"/>
<line x1="100" y1="0" x2="100" y2="1300" stroke="#f2f2f2" stroke-width="1" stroke-linecap="round"/>
<line x1="150" y1="0" x2="150" y2="1300" stroke="#f2f2f2" stroke-width="1" stroke-linecap="round"/>
<line x1="200" y1="0" x2="200" y2="1300" stroke="#f2f2f2" stroke-width="1" stroke-linecap="round"/>
<line x1="250" y1="0" x2="250" y2="1300" stroke="#f2f2f2" stroke-width="1" stroke-linecap="round"/>
<line x1="300" y1="0" x2="300" y2="1300" stroke="#f2f2f2" stroke-width="1" stroke-linecap="round"/>
<line x1="350" y1="0" x2="350" y2="1300" stroke="#f2f2f2" stroke-width="1" stroke-linecap="round"/>
<line x1="400" y1="0" x2="400" y2="1300" stroke="#f2f2f2" stroke-width="1" stroke-linecap="round"/>
<line x1="450" y1="0" x2="450" y2="1300" stroke="#f2f2f2" stroke-width="1" stroke-linecap="round"/>
<line x1="500" y1="0" x2="500" y2="1300" stroke="#f2f2f2" stroke-width="1" stroke-linecap="round"/>
<line x1="550" y1="0" x2="550" y2="1300" stroke="#f2f2f2" stroke-width="1" stroke-linecap="round"/>
<line x1="600" y1="0" x2="600" y2="1300" stroke="#f2f2f2" stroke-width="1" stroke-linecap="round"/>
<line x1="650" y1="0" x2="650" y2="1300" stroke="#f2f2f2" stroke-width="1" stroke-linecap="round"/>
<line x1="700" y1="0" x2="700" y2="1300" stroke="#f2f2f2" stroke-width="1" stroke-linecap="round"/>
<line x1="750" y1="0" x2="750" y2="1300" stroke="#f2f2f2" stroke-width="1" stroke-linecap="round"/>
<line x1="800" y1="0" x2="800" y2="1300" stroke="#f2f2f2" stroke-width="1" stroke-linecap="round"/>
<line x1="850" y1="0" x2="850" y2="1300" stroke="#f2f2f2" stroke-width="1" stroke-linecap="round"/>
<line x1="900" y1="0" x2="900" y2="1300" stroke="#f2f2f2" stroke-width="1" stroke-linecap="round"/>
<line x1="950" y1="0" x2="950" y2="1300" stroke="#f2f2f2" stroke-width="1" stroke-linecap="round"/>
<line x1="1000" y1="0" x2="1000" y2="1300" stroke="#f2f2f2" stroke-width="1" stroke-linecap="round"/>
<line x1="1050" y1="0" x2="1050" y2="1300" stroke="#f2f2f2" stroke-width="1" stroke-linecap="round"/>
<line x1="1100" y1="0" x2="1100" y2="1300" stroke="#f2f2f2" stroke-width="1" stroke-linecap="round"/>
<line x1="1150" y1="0" x2="1150" y2="1300" stroke="#f2f2f2" stroke-width="1" stroke-linecap="round"/>
<line x1="1200" y1="0" x2="1200" y2="1300" stroke="#f2f2f2" stroke-width="1" stroke-linecap="round"/>
<line x1="1250" y1="0" x2="1250" y2="1300" stroke="#f2f2f2" stroke-width="1" stroke-linecap="round"/>
<line x1="1300" y1="0" x2="1300" y2="1300" stroke="#f2f2f2" stroke-width="1" stroke-linecap="round"/>
<line x1="1350" y1="0" x2="1350" y2="1300" stroke="#f2f2f2" stroke-width="1" stroke-linecap="round"/>
<line x1="1400" y1="0" x2="1400" y2="1300" stroke="#f2f2f2" stroke-width="1" stroke-linecap="round"/>
<line x1="1450" y1="0" x2="1450" y2="1300" stroke="#f2f2f2" stroke-width="1" stroke-linecap="round"/>
<line x1="1500" y1="0" x2="1500" y2="1300" stroke="#f2f2f2" stroke-width="1" stroke-linecap="round"/>
<line x1="1550" y1="0" x2="1550" y2="1300" stroke="#f2f2f2" stroke-width="1" stroke-linecap="round"/>
<line x1="1600" y1="0" x2="1600" y2="1300" stroke="#f2f2f2" stroke-width="1" stroke-linecap="round"/>
<line x1="1650" y1="0" x2="1650" y2="1300" stroke="#f2f2f2" stroke-width="1" stroke-linecap="round"/>
<line x1="1700" y1="0" x2="1700" y2="1300" stroke="#f2f2f2" stroke-width="1" stroke-linecap="round"/>
<line x1="1750" y1="0" x2="1750" y2="1300" stroke="#f2f2f2" stroke-width="1" stroke-linecap="round"/>
<line x1="1800" y1="0" x2="1800" y2="1300" stroke="#f2f2f2" stroke-width="1" stroke-linecap="round"/>
<line x1="0" y1="0" x2="1800" y2="0" stroke="#f2f2f2" stroke-width="1" stroke-linecap="round"/>
<line x1="0" y1="50" x2="1800" y2="50" stroke="#f2f2f2" stroke-width="1" stroke-linecap="round"/>
<line x1="0" y1="100" x2="1800" y2="100" stroke="#f2f2f2" stroke-width="1" stroke-linecap="round"/>
<line x1="0" y1="150" x2="1800" y2="150" stroke="#f2f2f2" stroke-width="1" stroke-linecap="round"/>
<line x1="0" y1="200" x2="1800" y2="200" stroke="#f2f2f2" stroke-width="1" stroke-linecap="round"/>
<line x1="0" y1="250" x2="1800" y2="250" stroke="#f2f2f2" stroke-width="1" stroke-linecap="round"/>
<line x1="0" y1="300" x2="1800" y2="300" stroke="#f2f2f2" stroke-width="1" stroke-linecap="round"/>
<line x1="0" y1="350" x2="1800" y2="350" stroke="#f2f2f2" stroke-width="1" stroke-linecap="round"/>
<line x1="0" y1="400" x2="1800" y2="400" stroke="#f2f2f2" stroke-width="1" stroke-linecap="round"/>
<line x1="0" y1="450" x2="1800" y2="450" stroke="#f2f2f2" stroke-width="1" stroke-linecap="round"/>
<line x1="0" y1="500" x2="1800" y2="500" stroke="#f2f2f2" stroke-width="1" stroke-linecap="round"/>
<line x1="0" y1="550" x2="1800" y2="550" stroke="#f2f2f2" stroke-width="1" stroke-linecap="round"/>
<line x1="0" y1="600" x2="1800" y2="600" stroke="#f2f2f2" stroke-width="1" stroke-linecap="round"/>
<line x1="0" y1="650" x2="1800" y2="650" stroke="#f2f2f2" stroke-width="1" stroke-linecap="round"/>
<line x1="0" y1="700" x2="1800" y2="700" stroke="#f2f2f2" stroke-width="1" stroke-linecap="round"/>
<line x1="0" y1="750" x2="1800" y2="750" stroke="#f2f2f2" stroke-width="1" stroke-linecap="round"/>
<line x1="0" y1="800" x2="1800" y2="800" stroke="#f2f2f2" stroke-width="1" stroke-linecap="round"/>
<line x1="0" y1="850" x2="1800" y2="850" stroke="#f2f2f2" stroke-width="1" stroke-linecap="round"/>
<line x1="0" y1="900" x2="1800" y2="900" stroke="#f2f2f2" stroke-width="1" stroke-linecap="round"/>
<line x1="0" y1="950" x2="1800" y2="950" stroke="#f2f2f2" stroke-width="1" stroke-linecap="round"/>
<line x1="0" y1="1000" x2="1800" y2="1000" stroke="#f2f2f2" stroke-width="1" stroke-linecap="round"/>
<line x1="0" y1="1050" x2="1800" y2="1050" stroke="#f2f2f2" stroke-width="1" stroke-linecap="round"/>
<line x1="0" y1="1100" x2="1800" y2="1100" stroke="#f2f2f2" stroke-width="1" stroke-linecap="round"/>
<line x1="0" y1="1150" x2="1800" y2="1150" stroke="#f2f2f2" stroke-width="1" stroke-linecap="round"/>
<line x1="0" y1="1200" x2="1800" y2="1200" stroke="#f2f2f2" stroke-width="1" stroke-linecap="round"/>
<line x1="0" y1="1250" x2="1800" y2="1250" stroke="#f2f2f2" stroke-width="1" stroke-linecap="round"/>
<line x1="0" y1="1300" x2="1800" y2="1300" stroke="#f2f2f2" stroke-width="1" stroke-linecap="round"/>
<text x="70" y="70" font-family="Arial, Helvetica, sans-serif" font-size="34" fill="#000000" text-anchor="start" font-weight="bold">IoT Bicycle Watt Meter - GPIO Mapping Schematic</text>
<text x="70" y="108" font-family="Arial, Helvetica, sans-serif" font-size="24" fill="#333333" text-anchor="start" font-weight="normal">KiCad 10-style schematic diagram | Source: Google Sheet GPIO Mapping</text>
<text x="70" y="140" font-family="Arial, Helvetica, sans-serif" font-size="24" fill="#333333" text-anchor="start" font-weight="normal">Controller: ESP32 NodeMCU-32S / ESP-32S Kit</text>
<rect x="690" y="210" width="430" height="720" rx="0" fill="#fbfdff" stroke="#13294b" stroke-width="5"/>
<text x="905" y="265" font-family="Arial, Helvetica, sans-serif" font-size="34" fill="#13294b" text-anchor="middle" font-weight="bold">ESP32 NodeMCU-32S</text>
<text x="905" y="300" font-family="Arial, Helvetica, sans-serif" font-size="24" fill="#13294b" text-anchor="middle" font-weight="normal">ESP-32S Kit / ESP32 Dev Module</text>
<line x1="710" y1="320" x2="1100" y2="320" stroke="#b8c7dd" stroke-width="2" stroke-linecap="round"/>
<line x1="690" y1="365" x2="650" y2="365" stroke="#13294b" stroke-width="4" stroke-linecap="round"/>
<text x="705" y="356" font-family="Arial, Helvetica, sans-serif" font-size="23" fill="#111111" text-anchor="start" font-weight="normal">GPIO32</text>
<text x="705" y="383" font-family="Arial, Helvetica, sans-serif" font-size="19" fill="#004b23" text-anchor="start" font-weight="normal">HX711_DOUT</text>
<line x1="690" y1="425" x2="650" y2="425" stroke="#13294b" stroke-width="4" stroke-linecap="round"/>
<text x="705" y="416" font-family="Arial, Helvetica, sans-serif" font-size="23" fill="#111111" text-anchor="start" font-weight="normal">GPIO33</text>
<text x="705" y="443" font-family="Arial, Helvetica, sans-serif" font-size="19" fill="#004b23" text-anchor="start" font-weight="normal">HX711_SCK</text>
<line x1="690" y1="545" x2="650" y2="545" stroke="#13294b" stroke-width="4" stroke-linecap="round"/>
<text x="705" y="536" font-family="Arial, Helvetica, sans-serif" font-size="23" fill="#111111" text-anchor="start" font-weight="normal">GPIO25</text>
<text x="705" y="563" font-family="Arial, Helvetica, sans-serif" font-size="19" fill="#004b23" text-anchor="start" font-weight="normal">BTN1</text>
<line x1="690" y1="605" x2="650" y2="605" stroke="#13294b" stroke-width="4" stroke-linecap="round"/>
<text x="705" y="596" font-family="Arial, Helvetica, sans-serif" font-size="23" fill="#111111" text-anchor="start" font-weight="normal">GPIO26</text>
<text x="705" y="623" font-family="Arial, Helvetica, sans-serif" font-size="19" fill="#004b23" text-anchor="start" font-weight="normal">BTN2</text>
<line x1="690" y1="665" x2="650" y2="665" stroke="#13294b" stroke-width="4" stroke-linecap="round"/>
<text x="705" y="656" font-family="Arial, Helvetica, sans-serif" font-size="23" fill="#111111" text-anchor="start" font-weight="normal">GPIO27</text>
<text x="705" y="683" font-family="Arial, Helvetica, sans-serif" font-size="19" fill="#004b23" text-anchor="start" font-weight="normal">BTN3</text>
<line x1="690" y1="725" x2="650" y2="725" stroke="#13294b" stroke-width="4" stroke-linecap="round"/>
<text x="705" y="716" font-family="Arial, Helvetica, sans-serif" font-size="23" fill="#111111" text-anchor="start" font-weight="normal">GPIO14</text>
<text x="705" y="743" font-family="Arial, Helvetica, sans-serif" font-size="19" fill="#004b23" text-anchor="start" font-weight="normal">BTN4</text>
<line x1="690" y1="785" x2="650" y2="785" stroke="#13294b" stroke-width="4" stroke-linecap="round"/>
<text x="705" y="776" font-family="Arial, Helvetica, sans-serif" font-size="23" fill="#111111" text-anchor="start" font-weight="normal">GPIO16</text>
<text x="705" y="803" font-family="Arial, Helvetica, sans-serif" font-size="19" fill="#004b23" text-anchor="start" font-weight="normal">BTN5_ZERO_CAL</text>
<line x1="1120" y1="395" x2="1160" y2="395" stroke="#13294b" stroke-width="4" stroke-linecap="round"/>
<text x="1105" y="386" font-family="Arial, Helvetica, sans-serif" font-size="23" fill="#111111" text-anchor="end" font-weight="normal">GPIO21</text>
<text x="1105" y="413" font-family="Arial, Helvetica, sans-serif" font-size="19" fill="#004b23" text-anchor="end" font-weight="normal">I2C_SDA</text>
<line x1="1120" y1="455" x2="1160" y2="455" stroke="#13294b" stroke-width="4" stroke-linecap="round"/>
<text x="1105" y="446" font-family="Arial, Helvetica, sans-serif" font-size="23" fill="#111111" text-anchor="end" font-weight="normal">GPIO22</text>
<text x="1105" y="473" font-family="Arial, Helvetica, sans-serif" font-size="19" fill="#004b23" text-anchor="end" font-weight="normal">I2C_SCL</text>
<line x1="1120" y1="650" x2="1160" y2="650" stroke="#13294b" stroke-width="4" stroke-linecap="round"/>
<text x="1105" y="641" font-family="Arial, Helvetica, sans-serif" font-size="23" fill="#111111" text-anchor="end" font-weight="normal">GPIO13</text>
<text x="1105" y="668" font-family="Arial, Helvetica, sans-serif" font-size="19" fill="#004b23" text-anchor="end" font-weight="normal">BUZZER_PWM</text>
<line x1="240" y1="980" x2="1530" y2="980" stroke="#b00020" stroke-width="4" stroke-linecap="round"/>
<text x="225" y="990" font-family="Arial, Helvetica, sans-serif" font-size="26" fill="#b00020" text-anchor="end" font-weight="bold">3V3</text>
<line x1="240" y1="1030" x2="1530" y2="1030" stroke="#000000" stroke-width="4" stroke-linecap="round"/>
<text x="225" y="1040" font-family="Arial, Helvetica, sans-serif" font-size="26" fill="#000000" text-anchor="end" font-weight="bold">GND</text>
<rect x="130" y="285" width="330" height="210" rx="0" fill="#fffef8" stroke="#13294b" stroke-width="4"/>
<text x="295" y="330" font-family="Arial, Helvetica, sans-serif" font-size="27" fill="#13294b" text-anchor="middle" font-weight="bold">HX711 Load Cell ADC</text>
<text x="155" y="372" font-family="Arial, Helvetica, sans-serif" font-size="22" fill="#111111" text-anchor="start" font-weight="normal">DOUT</text>
<text x="155" y="432" font-family="Arial, Helvetica, sans-serif" font-size="22" fill="#111111" text-anchor="start" font-weight="normal">PD_SCK</text>
<text x="155" y="470" font-family="Arial, Helvetica, sans-serif" font-size="19" fill="#b00020" text-anchor="start" font-weight="normal">VCC/DVDD = 3.3V</text>
<text x="155" y="492" font-family="Arial, Helvetica, sans-serif" font-size="19" fill="#111111" text-anchor="start" font-weight="normal">GND</text>
<line x1="460" y1="365" x2="650" y2="365" stroke="#008000" stroke-width="4" stroke-linecap="round"/>
<line x1="460" y1="425" x2="650" y2="425" stroke="#008000" stroke-width="4" stroke-linecap="round"/>
<text x="560" y="353" font-family="Arial, Helvetica, sans-serif" font-size="20" fill="#004b23" text-anchor="middle" font-weight="normal">HX711_DOUT</text>
<text x="560" y="413" font-family="Arial, Helvetica, sans-serif" font-size="20" fill="#004b23" text-anchor="middle" font-weight="normal">HX711_SCK</text>
<rect x="95" y="540" width="540" height="315" fill="none" stroke="#777777" stroke-width="3" stroke-dasharray="10 8"/>
<text x="365" y="575" font-family="Arial, Helvetica, sans-serif" font-size="26" fill="#13294b" text-anchor="middle" font-weight="bold">Active-high enclosure buttons</text>
<rect x="125" y="595" width="105" height="34" rx="0" fill="#ffffff" stroke="#13294b" stroke-width="3"/>
<text x="177" y="620" font-family="Arial, Helvetica, sans-serif" font-size="20" fill="#111111" text-anchor="middle" font-weight="normal">SW1</text>
<text x="255" y="620" font-family="Arial, Helvetica, sans-serif" font-size="20" fill="#004b23" text-anchor="start" font-weight="normal">BTN1</text>
<text x="540" y="620" font-family="Arial, Helvetica, sans-serif" font-size="20" fill="#111111" text-anchor="end" font-weight="normal">GPIO25</text>
<line x1="600" y1="545" x2="650" y2="545" stroke="#008000" stroke-width="4" stroke-linecap="round"/>
<rect x="125" y="640" width="105" height="34" rx="0" fill="#ffffff" stroke="#13294b" stroke-width="3"/>
<text x="177" y="665" font-family="Arial, Helvetica, sans-serif" font-size="20" fill="#111111" text-anchor="middle" font-weight="normal">SW2</text>
<text x="255" y="665" font-family="Arial, Helvetica, sans-serif" font-size="20" fill="#004b23" text-anchor="start" font-weight="normal">BTN2</text>
<text x="540" y="665" font-family="Arial, Helvetica, sans-serif" font-size="20" fill="#111111" text-anchor="end" font-weight="normal">GPIO26</text>
<line x1="600" y1="605" x2="650" y2="605" stroke="#008000" stroke-width="4" stroke-linecap="round"/>
<rect x="125" y="685" width="105" height="34" rx="0" fill="#ffffff" stroke="#13294b" stroke-width="3"/>
<text x="177" y="710" font-family="Arial, Helvetica, sans-serif" font-size="20" fill="#111111" text-anchor="middle" font-weight="normal">SW3</text>
<text x="255" y="710" font-family="Arial, Helvetica, sans-serif" font-size="20" fill="#004b23" text-anchor="start" font-weight="normal">BTN3</text>
<text x="540" y="710" font-family="Arial, Helvetica, sans-serif" font-size="20" fill="#111111" text-anchor="end" font-weight="normal">GPIO27</text>
<line x1="600" y1="665" x2="650" y2="665" stroke="#008000" stroke-width="4" stroke-linecap="round"/>
<rect x="125" y="730" width="105" height="34" rx="0" fill="#ffffff" stroke="#13294b" stroke-width="3"/>
<text x="177" y="755" font-family="Arial, Helvetica, sans-serif" font-size="20" fill="#111111" text-anchor="middle" font-weight="normal">SW4</text>
<text x="255" y="755" font-family="Arial, Helvetica, sans-serif" font-size="20" fill="#004b23" text-anchor="start" font-weight="normal">BTN4</text>
<text x="540" y="755" font-family="Arial, Helvetica, sans-serif" font-size="20" fill="#111111" text-anchor="end" font-weight="normal">GPIO14</text>
<line x1="600" y1="725" x2="650" y2="725" stroke="#008000" stroke-width="4" stroke-linecap="round"/>
<rect x="125" y="775" width="105" height="34" rx="0" fill="#ffffff" stroke="#13294b" stroke-width="3"/>
<text x="177" y="800" font-family="Arial, Helvetica, sans-serif" font-size="20" fill="#111111" text-anchor="middle" font-weight="normal">SW5</text>
<text x="255" y="800" font-family="Arial, Helvetica, sans-serif" font-size="20" fill="#004b23" text-anchor="start" font-weight="normal">BTN5 / ZERO-CAL</text>
<text x="540" y="800" font-family="Arial, Helvetica, sans-serif" font-size="20" fill="#111111" text-anchor="end" font-weight="normal">GPIO16</text>
<line x1="600" y1="785" x2="650" y2="785" stroke="#008000" stroke-width="4" stroke-linecap="round"/>
<text x="125" y="835" font-family="Arial, Helvetica, sans-serif" font-size="19" fill="#333333" text-anchor="start" font-weight="normal">INPUT_PULLDOWN: released=LOW, pressed=HIGH</text>
<rect x="1260" y="270" width="420" height="310" fill="none" stroke="#777777" stroke-width="3" stroke-dasharray="10 8"/>
<text x="1470" y="305" font-family="Arial, Helvetica, sans-serif" font-size="28" fill="#13294b" text-anchor="middle" font-weight="bold">Shared I2C bus</text>
<rect x="1290" y="335" width="160" height="125" rx="0" fill="#f9fffb" stroke="#13294b" stroke-width="4"/>
<text x="1370" y="376" font-family="Arial, Helvetica, sans-serif" font-size="24" fill="#13294b" text-anchor="middle" font-weight="bold">MPU6050</text>
<text x="1312" y="415" font-family="Arial, Helvetica, sans-serif" font-size="20" fill="#004b23" text-anchor="start" font-weight="normal">SDA</text>
<text x="1312" y="445" font-family="Arial, Helvetica, sans-serif" font-size="20" fill="#004b23" text-anchor="start" font-weight="normal">SCL</text>
<rect x="1490" y="335" width="160" height="125" rx="0" fill="#f9fffb" stroke="#13294b" stroke-width="4"/>
<text x="1570" y="376" font-family="Arial, Helvetica, sans-serif" font-size="24" fill="#13294b" text-anchor="middle" font-weight="bold">OLED 1.3&quot;</text>
<text x="1570" y="407" font-family="Arial, Helvetica, sans-serif" font-size="18" fill="#333333" text-anchor="middle" font-weight="normal">SH1106 0x3C</text>
<text x="1512" y="435" font-family="Arial, Helvetica, sans-serif" font-size="20" fill="#004b23" text-anchor="start" font-weight="normal">SDA/SCL</text>
<polyline points="1160,395 1225,395 1225,375 1290,375" fill="none" stroke="#008000" stroke-width="4" stroke-linejoin="round" stroke-linecap="round"/>
<polyline points="1160,455 1210,455 1210,435 1290,435" fill="none" stroke="#008000" stroke-width="4" stroke-linejoin="round" stroke-linecap="round"/>
<line x1="1225" y1="375" x2="1490" y2="375" stroke="#008000" stroke-width="4" stroke-linecap="round"/>
<line x1="1210" y1="435" x2="1490" y2="435" stroke="#008000" stroke-width="4" stroke-linecap="round"/>
<circle cx="1225" cy="375" r="6" fill="#008000" stroke="#008000" stroke-width="3"/>
<circle cx="1210" cy="435" r="6" fill="#008000" stroke="#008000" stroke-width="3"/>
<text x="1175" y="380" font-family="Arial, Helvetica, sans-serif" font-size="20" fill="#004b23" text-anchor="start" font-weight="normal">I2C_SDA</text>
<text x="1175" y="440" font-family="Arial, Helvetica, sans-serif" font-size="20" fill="#004b23" text-anchor="start" font-weight="normal">I2C_SCL</text>
<polyline points="1430,460 1430,980" fill="none" stroke="#b00020" stroke-width="3" stroke-linejoin="round" stroke-linecap="round"/>
<polyline points="1480,460 1480,1030" fill="none" stroke="#000000" stroke-width="3" stroke-linejoin="round" stroke-linecap="round"/>
<rect x="1310" y="625" width="310" height="150" rx="0" fill="#fffafa" stroke="#13294b" stroke-width="4"/>
<text x="1465" y="670" font-family="Arial, Helvetica, sans-serif" font-size="27" fill="#13294b" text-anchor="middle" font-weight="bold">Passive Buzzer</text>
<text x="1335" y="720" font-family="Arial, Helvetica, sans-serif" font-size="21" fill="#004b23" text-anchor="start" font-weight="normal">Signal: BUZZER_PWM</text>
<text x="1335" y="750" font-family="Arial, Helvetica, sans-serif" font-size="19" fill="#333333" text-anchor="start" font-weight="normal">Use LEDC/PWM tone</text>
<line x1="1160" y1="650" x2="1310" y2="650" stroke="#008000" stroke-width="4" stroke-linecap="round"/>
<polyline points="1465,775 1465,1030" fill="none" stroke="#000000" stroke-width="3" stroke-linejoin="round" stroke-linecap="round"/>
<rect x="1165" y="840" width="555" height="190" rx="0" fill="#fffdf3" stroke="#666666" stroke-width="3"/>
<text x="1190" y="880" font-family="Arial, Helvetica, sans-serif" font-size="24" fill="#000000" text-anchor="start" font-weight="bold">Design notes from GPIO Mapping</text>
<text x="1190" y="914" font-family="Arial, Helvetica, sans-serif" font-size="18" fill="#333333" text-anchor="start" font-weight="normal">- HX711 logic/supply: 3.3V to match ESP32 GPIO.</text>
<text x="1190" y="942" font-family="Arial, Helvetica, sans-serif" font-size="18" fill="#333333" text-anchor="start" font-weight="normal">- Do not connect 5V HX711 DOUT directly to GPIO32.</text>
<text x="1190" y="970" font-family="Arial, Helvetica, sans-serif" font-size="18" fill="#333333" text-anchor="start" font-weight="normal">- OLED and MPU6050 share SDA=GPIO21, SCL=GPIO22.</text>
<text x="1190" y="998" font-family="Arial, Helvetica, sans-serif" font-size="18" fill="#333333" text-anchor="start" font-weight="normal">- GPIO used total: 10; power/voltmeter/battery excluded.</text>
<rect x="70" y="1135" width="1660" height="110" rx="0" fill="none" stroke="#000000" stroke-width="3"/>
<line x1="1210" y1="1135" x2="1210" y2="1245" stroke="#000000" stroke-width="2" stroke-linecap="round"/>
<line x1="70" y1="1190" x2="1730" y2="1190" stroke="#000000" stroke-width="2" stroke-linecap="round"/>
<text x="95" y="1170" font-family="Arial, Helvetica, sans-serif" font-size="22" fill="#000000" text-anchor="start" font-weight="normal">Sheet: IoT Watt Meter Implementation Plan / GPIO Mapping</text>
<text x="95" y="1223" font-family="Arial, Helvetica, sans-serif" font-size="21" fill="#000000" text-anchor="start" font-weight="normal">Diagram type: KiCad 10-style GPIO schematic (deterministic SVG/PNG)</text>
<text x="1235" y="1170" font-family="Arial, Helvetica, sans-serif" font-size="22" fill="#000000" text-anchor="start" font-weight="normal">Board: ESP32 NodeMCU-32S</text>
<text x="1235" y="1223" font-family="Arial, Helvetica, sans-serif" font-size="21" fill="#000000" text-anchor="start" font-weight="normal">Date: 2026-04-28</text>
</svg>
